<svg width="416" height="87" viewBox="0 0 416 87" fill="none" xmlns="http://www.w3.org/2000/svg">
<path fill-rule="evenodd" clip-rule="evenodd" d="M414.261 11.9821L401.706 9.93897C401.706 9.93897 397.799 9.21283 395.295 8.74756C392.792 8.28229 388.885 7.55615 388.885 7.55615C375.19 5.01991 337.444 4.20776 303.781 7.84299C270.117 11.7369 239.834 18.4502 206.146 33.21C172.457 48.2286 138.784 63.7796 105.133 61.9819C71.4822 60.1842 34.4878 45.8481 17.5128 37.0833L1.09756 30.3922L0.83819 77.0748L20.1161 77.0044C36.9436 76.9978 71.3857 78.6265 105.041 78.6132C138.696 78.5999 172.235 79.3363 205.89 79.3231C239.545 79.3098 273.097 80.0463 306.752 80.033C340.407 80.0197 375.02 80.6386 391.848 80.632L413.881 80.5649L414.071 46.3219L414.261 11.9821Z" fill="#0099FF"/>
<path fill-rule="evenodd" clip-rule="evenodd" d="M414.244 26.8976L397.009 25.3413C379.829 23.9575 345.47 21.19 311.051 23.6362C276.63 26.2687 242.151 34.1149 207.642 44.5681C173.132 55.2074 138.591 68.4537 104.217 66.9896C69.8424 65.5255 35.6357 49.1649 18.5312 41.0777L1.19393 32.7076L0.867342 81.1905L18.0783 81.2983C35.2729 81.3786 69.6621 81.5393 104.051 81.6999C138.44 81.8606 172.83 82.0212 207.219 82.1818C241.608 82.3425 275.997 82.5031 310.386 82.6637C344.775 82.8244 379.165 82.985 396.359 83.0653L413.866 83.0629L414.244 26.8976Z" fill="#276CDC"/>
</svg>
