<svg width="416" height="85" viewBox="0 0 416 85" fill="none" xmlns="http://www.w3.org/2000/svg">
<path fill-rule="evenodd" clip-rule="evenodd" d="M1.71291 74.5902L14.2795 76.5572C14.2795 76.5572 18.191 77.2596 20.6974 77.7097C23.2037 78.1598 27.1152 78.8622 27.1152 78.8622C40.8246 81.3154 78.5755 81.8987 112.216 78.0594C145.855 73.9614 176.097 67.0646 209.695 52.1008C243.292 36.8783 276.87 21.1234 310.531 22.717C344.193 24.3107 381.273 38.4223 398.301 47.084L414.757 53.6755L414.733 6.99208L395.456 7.17934C378.629 7.288 344.177 5.86817 310.523 6.0855C276.869 6.30283 243.326 5.76978 209.672 5.98711C176.017 6.20444 142.461 5.67137 108.807 5.8887C75.1526 6.10603 40.5362 5.69701 23.709 5.80567L1.67667 6.0064L1.69404 40.2499L1.71291 74.5902Z" fill="#0099FF"/>
<path fill-rule="evenodd" clip-rule="evenodd" d="M1.63832 59.6747L18.8825 61.1265C36.0705 62.406 70.4465 64.9652 104.85 62.3103C139.254 59.4692 173.685 51.414 208.129 40.7519C242.575 29.9035 277.034 16.448 311.417 17.7037C345.8 18.9593 380.105 35.1122 397.258 43.0956L414.646 51.3604L414.679 2.87645L397.467 2.87294C380.272 2.89688 345.883 2.94475 311.493 2.99262C277.104 3.04049 242.714 3.08836 208.325 3.13623C173.935 3.1841 139.546 3.23196 105.156 3.27983C70.7668 3.3277 36.3773 3.37557 19.1826 3.39951L1.67593 3.5081L1.63832 59.6747Z" fill="#276CDC"/>
</svg>
