<svg width="1440" height="160" viewBox="0 0 1440 160" fill="none" xmlns="http://www.w3.org/2000/svg">
<path fill-rule="evenodd" clip-rule="evenodd" d="M-4.95908 149.527L55.1425 152.347C115.239 154.711 235.433 159.438 355.494 151.392C475.551 142.891 594.598 118.999 714.456 91.3377C834.309 63.2202 954.678 17.6961 1074.84 19.2301C1195 20.7642 1325.09 53.7655 1385.36 72.5516L1445.63 91.3377L1435.22 -0.679763L1375.16 0.149817C1315.09 0.979396 1194.97 2.63856 1074.84 4.29771C954.711 5.95687 834.583 7.61603 714.456 9.27519C594.328 10.9343 474.201 12.5935 354.073 14.2527C233.946 15.9118 113.818 17.571 53.7546 18.4006L-6.30917 19.2301L-4.95908 149.527Z" fill="#276CDC"/>
<path fill-rule="evenodd" clip-rule="evenodd" d="M-9.04992 109.117L51.8398 111.897C112.724 114.206 234.492 118.824 356.099 110.253C477.701 101.211 599.142 78.9791 720.502 50.1529C841.857 20.8557 953.772 5.17921 1075.5 6.5C1197.23 7.8208 1328.77 26.61 1389.86 45.8767L1450.96 65.1434L1449.47 -56.8576L1388.62 -55.8693C1327.78 -54.881 1206.09 -52.9045 1084.41 -50.928C962.718 -48.9515 841.03 -46.9749 719.343 -44.9984C597.655 -43.0219 475.967 -41.0453 354.28 -39.0688C232.592 -37.0923 110.904 -35.1158 50.0605 -34.1275L-10.7834 -33.1392L-9.04992 109.117Z" fill="#0099FF"/>
</svg>
