<svg width="1440" height="152" viewBox="0 0 1440 152" fill="none" xmlns="http://www.w3.org/2000/svg">
<path fill-rule="evenodd" clip-rule="evenodd" d="M-8.66521 142.296L51.4762 145.246C111.612 147.734 231.884 152.709 352.008 144.74C472.126 136.308 592.182 122.501 712.077 94.6533C831.967 66.3431 951.782 31.5607 1072.02 33.2997C1192.25 35.0387 1322.07 47.2928 1382.39 66.423L1442.72 85.5532L1432.19 -7.71279L1372.09 -6.96426C1311.99 -6.21574 1191.8 -4.71868 1071.6 -3.22162C951.4 -1.72457 831.202 -0.227512 711.004 1.26954C590.806 2.7666 470.609 4.26366 350.411 5.76071C230.213 7.25777 110.015 8.75483 49.9164 9.50335L-10.1824 10.2519L-8.66521 142.296Z" fill="#0099FF"/>
<path fill-rule="evenodd" clip-rule="evenodd" d="M-9.2784 97.9256L51.2541 100.139C111.786 102.018 232.85 105.776 353.897 100.147C474.943 94.1834 595.972 78.8337 716.992 58.7909C838.012 38.413 959.024 13.342 1080.08 14.753C1201.14 16.164 1322.25 44.3921 1382.8 58.3385L1443.36 72.2849L1443.2 -14.5355L1382.67 -14.0678C1322.15 -13.6 1201.09 -12.6645 1080.04 -11.7289C958.98 -10.7934 837.925 -9.85787 716.869 -8.92233C595.814 -7.9868 474.759 -7.05126 353.704 -6.11573C232.648 -5.1802 111.593 -4.24466 51.0655 -3.7769L-9.46217 -3.30913L-9.2784 97.9256Z" fill="#276CDC"/>
</svg>
