<svg width="1440" height="100" viewBox="0 0 1440 100" fill="none" xmlns="http://www.w3.org/2000/svg">
<path fill-rule="evenodd" clip-rule="evenodd" d="M1445.22 9.17125L1384.75 6.78388C1324.29 4.78668 1203.36 0.792292 1082.56 7.72286C961.758 15.0436 841.015 26.9011 720.411 50.6093C599.811 74.7077 479.639 95.7631 358.741 94.5C237.843 93.2368 110.631 82.0436 49.9999 66L-19.4999 50.6093L-3.85727 138.234L56.5758 137.5C117.009 136.766 237.875 135.297 358.741 133.829C479.607 132.361 600.473 130.893 721.339 129.425C842.205 127.957 963.071 126.489 1083.94 125.021C1204.8 123.553 1325.67 122.085 1386.1 121.351L1446.54 120.617L1445.22 9.17125Z" fill="#0099FF"/>
<path fill-rule="evenodd" clip-rule="evenodd" d="M1439.09 34.9101L1378.63 32.7418C1318.16 30.9016 1197.22 27.221 1076.31 32.7243C955.389 38.5557 834.489 53.5709 713.598 73.178C592.707 93.1132 471.825 117.64 350.895 116.256C229.965 114.871 108.986 87.2468 48.4965 73.5987L-11.9927 59.9506L-11.8345 144.902L48.6283 144.446C109.091 143.99 230.017 143.079 350.943 142.167C471.869 141.256 592.795 140.345 713.721 139.433C834.647 138.522 955.573 137.61 1076.5 136.699C1197.43 135.788 1318.35 134.876 1378.81 134.421L1439.28 133.965L1439.09 34.9101Z" fill="#276CDC"/>
</svg>
